<svg width="329" height="63" viewBox="0 0 329 63" fill="none" xmlns="http://www.w3.org/2000/svg">
<path d="M320.92 29.0813H304.182V51.2302H296.101V0.872009H304.182V22.2995H320.92V0.872009H329V51.2302H320.92V29.0813Z" fill="black"/>
<path d="M273.331 7.65378V51.2302H265.251V7.65378H249.451V0.872009H289.131V7.65378H273.331Z" fill="black"/>
<path d="M217.829 1.12854V31.4013C217.829 33.4241 217.878 35.2589 217.976 36.9054C218.124 38.5519 218.492 39.9632 219.082 41.1393C219.672 42.2684 220.557 43.1387 221.737 43.7503C222.917 44.3619 224.539 44.6676 226.604 44.6676C228.669 44.6676 230.291 44.3619 231.471 43.7503C232.651 43.1387 233.536 42.2684 234.126 41.1393C234.716 39.9632 235.06 38.5519 235.158 36.9054C235.306 35.2589 235.38 33.4241 235.38 31.4013V1.12854H243.639V29.99C243.639 33.5182 243.418 36.6231 242.975 39.3046C242.582 41.9391 241.771 44.1501 240.542 45.9378C239.313 47.6784 237.567 48.9957 235.306 49.8895C233.094 50.7833 230.193 51.2303 226.604 51.2303C223.015 51.2303 220.09 50.7833 217.829 49.8895C215.616 48.9957 213.896 47.6784 212.667 45.9378C211.438 44.1501 210.602 41.9391 210.16 39.3046C209.766 36.6231 209.57 33.5182 209.57 29.99V1.12854H217.829Z" fill="black"/>
<path d="M194.459 51.2302L190.635 37.811H174.619L170.795 51.2302H162.57L177.288 0.872009H188.327L203.044 51.2302H194.459ZM182.916 9.02456H182.338L176.134 31.1014H189.12L182.916 9.02456Z" fill="black"/>
<path d="M147.619 51.2302C147.09 51.2302 146.826 50.9657 146.826 50.4366V27.7826C146.826 25.5701 146.369 23.9589 145.455 22.9488C144.589 21.8907 143.218 21.3616 141.343 21.3616C139.563 21.3616 137.807 21.8907 136.076 22.9488C134.344 23.9589 132.276 25.6663 129.871 28.0712L129.727 22.2273C131.266 20.592 132.757 19.2453 134.2 18.1871C135.643 17.129 137.11 16.3354 138.601 15.8063C140.14 15.2772 141.751 15.0127 143.435 15.0127C146.898 15.0127 149.519 16.0227 151.299 18.0428C153.127 20.0149 154.04 22.9969 154.04 26.989V50.4366C154.04 50.9657 153.8 51.2302 153.319 51.2302H147.619ZM124.749 51.2302C124.22 51.2302 123.955 50.9657 123.955 50.4366V24.8246C123.955 23.4779 123.883 22.059 123.739 20.568C123.643 19.0289 123.546 17.8024 123.45 16.8885C123.354 16.2151 123.619 15.8785 124.244 15.8785H129.366C129.847 15.8785 130.136 16.1189 130.232 16.5999C130.328 17.0328 130.424 17.634 130.521 18.4036C130.617 19.1731 130.713 19.9908 130.809 20.8566C130.905 21.7223 130.954 22.4678 130.954 23.0931L131.17 25.4018V50.4366C131.17 50.9657 130.905 51.2302 130.376 51.2302H124.749Z" fill="black"/>
<path d="M100.458 51.2302C95.484 51.2302 91.705 50.0943 89.1207 47.8225C86.5852 45.5507 85.3174 42.1677 85.3174 37.6735V27.8208C85.3174 23.0303 86.5852 19.4003 89.1207 16.931C91.6563 14.4123 95.4109 13.1529 100.384 13.1529C105.309 13.1529 109.04 14.3629 111.575 16.7828C114.111 19.2028 115.378 22.734 115.378 27.3763V33.1546C115.378 33.6978 115.135 33.9695 114.647 33.9695H92.6315V36.34C92.6315 39.3526 93.2654 41.5504 94.5332 42.9332C95.801 44.316 97.8489 45.0074 100.677 45.0074C102.823 45.0074 104.48 44.6617 105.651 43.9703C106.821 43.2789 107.406 42.2171 107.406 40.7849C107.406 40.2416 107.699 39.97 108.284 39.97H113.916C114.354 39.97 114.623 40.2169 114.72 40.7108C114.915 44.0197 113.745 46.6125 111.209 48.4892C108.674 50.3165 105.09 51.2302 100.458 51.2302ZM92.6315 28.3394H108.137V27.969C108.137 25.0058 107.504 22.8327 106.236 21.4499C104.968 20.0671 103.042 19.3756 100.458 19.3756C97.8245 19.3756 95.8497 20.0918 94.5332 21.524C93.2654 22.9562 92.6315 25.1045 92.6315 27.969V28.3394Z" fill="black"/>
<path d="M63.8952 50.2362C62.1636 50.2362 60.3119 49.9957 58.3399 49.5147C56.3679 49.0818 54.7566 48.4566 53.5061 47.6389L53.3618 41.7229C54.6604 42.4444 56.1033 43.0215 57.6906 43.4544C59.2778 43.8392 60.7448 44.0316 62.0915 44.0316C64.6888 44.0316 66.5646 43.2861 67.7189 41.795C68.9214 40.2559 69.5226 37.9713 69.5226 34.9411V27.1493C69.5226 24.5039 69.0657 22.58 68.1518 21.3776C67.2379 20.1271 65.8431 19.5018 63.9673 19.5018C62.3801 19.5018 60.7688 19.9828 59.1335 20.9447C57.4982 21.8586 55.454 23.4458 53.001 25.7064L52.7846 19.6461C54.3237 18.2031 55.7907 17.0007 57.1855 16.0388C58.5804 15.0768 59.9992 14.3553 61.4422 13.8744C62.8851 13.3934 64.4242 13.1529 66.0596 13.1529C69.5707 13.1529 72.216 14.2351 73.9957 16.3995C75.8234 18.5639 76.7372 21.8586 76.7372 26.2836V35.7347C76.7372 40.4964 75.631 44.1037 73.4185 46.5567C71.2541 49.0097 68.0797 50.2362 63.8952 50.2362ZM48.0229 62.7175C47.4939 62.7175 47.2293 62.453 47.2293 61.9239V22.3876C47.2293 21.1852 47.1812 19.9106 47.085 18.5639C46.9888 17.2171 46.8686 16.0147 46.7243 14.9566C46.6762 14.3313 46.9407 14.0187 47.5179 14.0187H52.6403C53.1694 14.0187 53.458 14.2591 53.5061 14.7401C53.6023 15.1249 53.6985 15.6299 53.7947 16.2552C53.8909 16.8805 53.963 17.5057 54.0111 18.131C54.0592 18.7082 54.0832 19.1411 54.0832 19.4296L54.444 23.2534V61.9239C54.444 62.453 54.1794 62.7175 53.6504 62.7175H48.0229Z" fill="black"/>
<path d="M18.8407 51.2303C12.6842 51.2303 8.06684 49.7053 4.98859 46.6554C1.95844 43.5564 0.443359 39.1783 0.443359 33.5213V18.8375C0.443359 13.1313 1.95844 8.75325 4.98859 5.70337C8.06684 2.65348 12.6842 1.12854 18.8407 1.12854C24.9972 1.12854 29.5905 2.65348 32.6207 5.70337C35.6989 8.75325 37.2381 13.1313 37.2381 18.8375V33.5213C37.2381 39.1783 35.6989 43.5564 32.6207 46.6554C29.5905 49.7053 24.9972 51.2303 18.8407 51.2303ZM18.8407 44.6632C22.4961 44.6632 25.2617 43.7039 27.1376 41.7855C29.0134 39.8178 29.9513 36.9893 29.9513 33.2999V19.0589C29.9513 15.3203 29.0134 12.4918 27.1376 10.5733C25.2617 8.65487 22.4961 7.69563 18.8407 7.69563C15.2334 7.69563 12.4678 8.65487 10.5439 10.5733C8.66806 12.4918 7.73015 15.3203 7.73015 19.0589V33.2999C7.73015 36.9893 8.66806 39.8178 10.5439 41.7855C12.4678 43.7039 15.2334 44.6632 18.8407 44.6632Z" fill="black"/>
</svg>
