<svg width="184" height="32" viewBox="0 0 184 32" fill="none" xmlns="http://www.w3.org/2000/svg">
<path d="M9.628 25.432C6.556 25.432 4.252 24.688 2.716 23.2C1.204 21.688 0.447998 19.552 0.447998 16.792V9.628C0.447998 6.844 1.204 4.708 2.716 3.22C4.252 1.732 6.556 0.988002 9.628 0.988002C12.7 0.988002 14.992 1.732 16.504 3.22C18.04 4.708 18.808 6.844 18.808 9.628V16.792C18.808 19.552 18.04 21.688 16.504 23.2C14.992 24.688 12.7 25.432 9.628 25.432ZM9.628 22.228C11.452 22.228 12.832 21.76 13.768 20.824C14.704 19.864 15.172 18.484 15.172 16.684V9.736C15.172 7.912 14.704 6.532 13.768 5.596C12.832 4.66 11.452 4.192 9.628 4.192C7.828 4.192 6.448 4.66 5.488 5.596C4.552 6.532 4.084 7.912 4.084 9.736V16.684C4.084 18.484 4.552 19.864 5.488 20.824C6.448 21.76 7.828 22.228 9.628 22.228Z" fill="white"/>
<path d="M31.0294 25.432C30.1654 25.432 29.2414 25.312 28.2574 25.072C27.2734 24.856 26.4694 24.544 25.8454 24.136L25.7734 21.184C26.4214 21.544 27.1414 21.832 27.9334 22.048C28.7254 22.24 29.4574 22.336 30.1294 22.336C31.4254 22.336 32.3614 21.964 32.9374 21.22C33.5374 20.452 33.8374 19.312 33.8374 17.8V13.912C33.8374 12.592 33.6094 11.632 33.1534 11.032C32.6974 10.408 32.0014 10.096 31.0654 10.096C30.2734 10.096 29.4694 10.336 28.6534 10.816C27.8374 11.272 26.8174 12.064 25.5934 13.192L25.4854 10.168C26.2534 9.448 26.9854 8.848 27.6814 8.368C28.3774 7.888 29.0854 7.528 29.8054 7.288C30.5254 7.048 31.2934 6.928 32.1094 6.928C33.8614 6.928 35.1814 7.468 36.0694 8.548C36.9814 9.628 37.4374 11.272 37.4374 13.48V18.196C37.4374 20.572 36.8854 22.372 35.7814 23.596C34.7014 24.82 33.1174 25.432 31.0294 25.432ZM23.1094 31.66C22.8454 31.66 22.7134 31.528 22.7134 31.264V11.536C22.7134 10.936 22.6894 10.3 22.6414 9.628C22.5934 8.956 22.5334 8.356 22.4614 7.828C22.4374 7.516 22.5694 7.36 22.8574 7.36H25.4134C25.6774 7.36 25.8214 7.48 25.8454 7.72C25.8934 7.912 25.9414 8.164 25.9894 8.476C26.0374 8.788 26.0734 9.1 26.0974 9.412C26.1214 9.7 26.1334 9.916 26.1334 10.06L26.3134 11.968V31.264C26.3134 31.528 26.1814 31.66 25.9174 31.66H23.1094Z" fill="white"/>
<path d="M48.0237 25.432C45.5757 25.432 43.7157 24.88 42.4437 23.776C41.1957 22.672 40.5717 21.028 40.5717 18.844V14.056C40.5717 11.728 41.1957 9.964 42.4437 8.764C43.6917 7.54 45.5397 6.928 47.9877 6.928C50.4117 6.928 52.2477 7.516 53.4957 8.692C54.7437 9.868 55.3677 11.584 55.3677 13.84V16.648C55.3677 16.912 55.2477 17.044 55.0077 17.044H44.1717V18.196C44.1717 19.66 44.4837 20.728 45.1077 21.4C45.7317 22.072 46.7397 22.408 48.1317 22.408C49.1877 22.408 50.0037 22.24 50.5797 21.904C51.1557 21.568 51.4437 21.052 51.4437 20.356C51.4437 20.092 51.5877 19.96 51.8757 19.96H54.6477C54.8637 19.96 54.9957 20.08 55.0437 20.32C55.1397 21.928 54.5637 23.188 53.3157 24.1C52.0677 24.988 50.3037 25.432 48.0237 25.432ZM44.1717 14.308H51.8037V14.128C51.8037 12.688 51.4917 11.632 50.8677 10.96C50.2437 10.288 49.2957 9.952 48.0237 9.952C46.7277 9.952 45.7557 10.3 45.1077 10.996C44.4837 11.692 44.1717 12.736 44.1717 14.128V14.308Z" fill="white"/>
<path d="M70.6466 25C70.3826 25 70.2506 24.868 70.2506 24.604V13.3C70.2506 12.196 70.0226 11.392 69.5666 10.888C69.1346 10.36 68.4506 10.096 67.5146 10.096C66.6266 10.096 65.7506 10.36 64.8866 10.888C64.0226 11.392 62.9906 12.244 61.7906 13.444L61.7186 10.528C62.4866 9.712 63.2306 9.04 63.9506 8.512C64.6706 7.984 65.4026 7.588 66.1466 7.324C66.9146 7.06 67.7186 6.928 68.5586 6.928C70.2866 6.928 71.5946 7.432 72.4826 8.44C73.3946 9.424 73.8506 10.912 73.8506 12.904V24.604C73.8506 24.868 73.7306 25 73.4906 25H70.6466ZM59.2346 25C58.9706 25 58.8386 24.868 58.8386 24.604V11.824C58.8386 11.152 58.8026 10.444 58.7306 9.7C58.6826 8.932 58.6346 8.32 58.5866 7.864C58.5386 7.528 58.6706 7.36 58.9826 7.36H61.5386C61.7786 7.36 61.9226 7.48 61.9706 7.72C62.0186 7.936 62.0666 8.236 62.1146 8.62C62.1626 9.004 62.2106 9.412 62.2586 9.844C62.3066 10.276 62.3306 10.648 62.3306 10.96L62.4386 12.112V24.604C62.4386 24.868 62.3066 25 62.0426 25H59.2346Z" fill="white"/>
<path d="M86.8697 25.432C83.8937 25.432 81.6257 24.7 80.0657 23.236C78.5057 21.748 77.7257 19.6 77.7257 16.792V9.664C77.7257 6.832 78.5057 4.684 80.0657 3.22C81.6497 1.732 83.9297 0.988002 86.9057 0.988002C88.8497 0.988002 90.5417 1.312 91.9817 1.96C93.4217 2.608 94.4897 3.544 95.1857 4.768C95.9057 5.968 96.1457 7.408 95.9057 9.088C95.8817 9.232 95.8457 9.352 95.7977 9.448C95.7497 9.544 95.6537 9.592 95.5097 9.592H92.6297C92.3657 9.592 92.2457 9.46 92.2697 9.196C92.3417 7.612 91.9217 6.376 91.0097 5.488C90.0977 4.6 88.7417 4.156 86.9417 4.156C85.1417 4.156 83.7617 4.624 82.8017 5.56C81.8417 6.496 81.3617 7.864 81.3617 9.664V16.756C81.3617 18.556 81.8417 19.924 82.8017 20.86C83.7617 21.796 85.1417 22.264 86.9417 22.264C88.7657 22.264 90.1457 21.82 91.0817 20.932C92.0417 20.02 92.4377 18.784 92.2697 17.224C92.2457 16.96 92.3657 16.828 92.6297 16.828H95.4737C95.7137 16.828 95.8577 16.996 95.9057 17.332C96.0497 18.964 95.7617 20.392 95.0417 21.616C94.3457 22.816 93.2897 23.752 91.8737 24.424C90.4577 25.096 88.7897 25.432 86.8697 25.432Z" fill="white"/>
<path d="M106.558 25.432C104.086 25.432 102.19 24.832 100.87 23.632C99.5503 22.432 98.8903 20.62 98.8903 18.196V14.164C98.8903 11.74 99.5383 9.928 100.834 8.728C102.154 7.528 104.062 6.928 106.558 6.928C109.03 6.928 110.914 7.528 112.21 8.728C113.53 9.928 114.19 11.74 114.19 14.164V18.196C114.19 20.62 113.542 22.432 112.246 23.632C110.95 24.832 109.054 25.432 106.558 25.432ZM106.558 22.3C107.974 22.3 108.994 21.94 109.618 21.22C110.266 20.5 110.59 19.384 110.59 17.872V14.488C110.59 13 110.266 11.896 109.618 11.176C108.994 10.432 107.974 10.06 106.558 10.06C105.118 10.06 104.074 10.432 103.426 11.176C102.802 11.896 102.49 13 102.49 14.488V17.872C102.49 19.384 102.802 20.5 103.426 21.22C104.074 21.94 105.118 22.3 106.558 22.3Z" fill="white"/>
<path d="M129.493 25C129.229 25 129.097 24.868 129.097 24.604V13.3C129.097 12.196 128.869 11.392 128.413 10.888C127.981 10.36 127.297 10.096 126.361 10.096C125.473 10.096 124.597 10.36 123.733 10.888C122.869 11.392 121.837 12.244 120.637 13.444L120.565 10.528C121.333 9.712 122.077 9.04 122.797 8.512C123.517 7.984 124.249 7.588 124.993 7.324C125.761 7.06 126.565 6.928 127.405 6.928C129.133 6.928 130.441 7.432 131.329 8.44C132.241 9.424 132.697 10.912 132.697 12.904V24.604C132.697 24.868 132.577 25 132.337 25H129.493ZM118.081 25C117.817 25 117.685 24.868 117.685 24.604V11.824C117.685 11.152 117.649 10.444 117.577 9.7C117.529 8.932 117.481 8.32 117.433 7.864C117.385 7.528 117.517 7.36 117.829 7.36H120.385C120.625 7.36 120.769 7.48 120.817 7.72C120.865 7.936 120.913 8.236 120.961 8.62C121.009 9.004 121.057 9.412 121.105 9.844C121.153 10.276 121.177 10.648 121.177 10.96L121.285 12.112V24.604C121.285 24.868 121.153 25 120.889 25H118.081Z" fill="white"/>
<path d="M143.477 25.432C142.157 25.432 141.113 25.228 140.345 24.82C139.577 24.388 139.013 23.74 138.653 22.876C138.317 21.988 138.149 20.884 138.149 19.564V10.42H135.413C135.173 10.42 135.053 10.288 135.053 10.024V7.756C135.053 7.492 135.173 7.36 135.413 7.36H138.257L138.689 3.04C138.713 2.8 138.857 2.68 139.121 2.68H141.317C141.581 2.68 141.713 2.8 141.713 3.04L141.749 7.36H146.897C147.161 7.36 147.293 7.492 147.293 7.756V10.024C147.293 10.288 147.161 10.42 146.897 10.42H141.749V19.42C141.749 20.476 141.929 21.232 142.289 21.688C142.673 22.12 143.321 22.336 144.233 22.336C144.689 22.336 145.145 22.288 145.601 22.192C146.081 22.072 146.501 21.928 146.861 21.76C147.173 21.64 147.329 21.736 147.329 22.048V24.388C147.329 24.604 147.233 24.748 147.041 24.82C146.585 24.988 146.057 25.132 145.457 25.252C144.881 25.372 144.221 25.432 143.477 25.432Z" fill="white"/>
<path d="M150.233 25C149.969 25 149.837 24.868 149.837 24.604V11.716C149.837 11.02 149.813 10.36 149.765 9.736C149.741 9.088 149.681 8.44 149.585 7.792C149.537 7.504 149.669 7.36 149.981 7.36H152.537C152.801 7.36 152.945 7.48 152.969 7.72C153.065 8.152 153.137 8.656 153.185 9.232C153.233 9.808 153.257 10.3 153.257 10.708L153.437 12.688V24.604C153.437 24.868 153.305 25 153.041 25H150.233ZM153.041 14.02L152.897 10.744C153.401 10 153.977 9.352 154.625 8.8C155.273 8.224 155.933 7.768 156.605 7.432C157.277 7.096 157.901 6.928 158.477 6.928C158.885 6.928 159.209 6.964 159.449 7.036C159.641 7.108 159.749 7.252 159.773 7.468C159.821 7.996 159.833 8.56 159.809 9.16C159.809 9.736 159.773 10.288 159.701 10.816C159.653 11.104 159.485 11.212 159.197 11.14C159.029 11.092 158.837 11.056 158.621 11.032C158.405 11.008 158.177 10.996 157.937 10.996C157.361 10.996 156.785 11.128 156.209 11.392C155.633 11.632 155.069 11.98 154.517 12.436C153.989 12.868 153.497 13.396 153.041 14.02Z" fill="white"/>
<path d="M168.648 25.432C166.176 25.432 164.28 24.832 162.96 23.632C161.64 22.432 160.98 20.62 160.98 18.196V14.164C160.98 11.74 161.628 9.928 162.924 8.728C164.244 7.528 166.152 6.928 168.648 6.928C171.12 6.928 173.004 7.528 174.3 8.728C175.62 9.928 176.28 11.74 176.28 14.164V18.196C176.28 20.62 175.632 22.432 174.336 23.632C173.04 24.832 171.144 25.432 168.648 25.432ZM168.648 22.3C170.064 22.3 171.084 21.94 171.708 21.22C172.356 20.5 172.68 19.384 172.68 17.872V14.488C172.68 13 172.356 11.896 171.708 11.176C171.084 10.432 170.064 10.06 168.648 10.06C167.208 10.06 166.164 10.432 165.516 11.176C164.892 11.896 164.58 13 164.58 14.488V17.872C164.58 19.384 164.892 20.5 165.516 21.22C166.164 21.94 167.208 22.3 168.648 22.3Z" fill="white"/>
<path d="M180.171 25C179.907 25 179.775 24.868 179.775 24.604V0.808002C179.775 0.544002 179.907 0.412003 180.171 0.412003H182.979C183.243 0.412003 183.375 0.544002 183.375 0.808002V24.604C183.375 24.868 183.243 25 182.979 25H180.171Z" fill="white"/>
</svg>
